<?xml version="1.0" encoding="UTF-8"?>
<svg version="1.1" xmlns="http://www.w3.org/2000/svg" width="512" height="512">
<path d="M0 0 C168.96 0 337.92 0 512 0 C512 168.96 512 337.92 512 512 C343.04 512 174.08 512 0 512 C0 343.04 0 174.08 0 0 Z " fill="#FEFDFE" transform="translate(0,0)"/>
<path d="M0 0 C6.94119452 3.1866393 11.77327076 7.78558332 14.953125 14.74609375 C16.84128063 20.33326771 16.31744317 26.30654854 16.078125 32.12109375 C16.95936035 32.39042725 17.8405957 32.65976074 18.74853516 32.93725586 C21.89680427 34.05662504 24.48723417 35.35887815 27.3515625 37.0625 C28.33447266 37.64241699 29.31738281 38.22233398 30.33007812 38.81982422 C31.87598633 39.74239014 31.87598633 39.74239014 33.453125 40.68359375 C35.59577196 41.94890307 37.73900339 43.2132232 39.8828125 44.4765625 C41.45627441 45.4054126 41.45627441 45.4054126 43.06152344 46.35302734 C47.20680994 48.78262955 51.38456479 51.15102996 55.578125 53.49609375 C56.24763184 53.87064697 56.91713867 54.2452002 57.60693359 54.63110352 C59.09639019 55.46278691 60.58708564 56.29225128 62.078125 57.12109375 C64.98443785 54.36707677 67.22427123 51.56416113 69.453125 48.24609375 C84.72263859 27.05574836 105.78030674 13.79024339 131.078125 8.12109375 C132.21519897 7.85848755 132.21519897 7.85848755 133.37524414 7.59057617 C148.74709621 4.92053087 167.46554862 5.7834672 182.078125 11.12109375 C183.0369458 11.45850586 183.0369458 11.45850586 184.01513672 11.80273438 C200.12998357 17.52510112 212.54214197 26.46414482 224.640625 38.43359375 C225.26098633 39.04460937 225.88134766 39.655625 226.52050781 40.28515625 C227.09768555 40.86652344 227.67486328 41.44789062 228.26953125 42.046875 C228.78717041 42.56677002 229.30480957 43.08666504 229.83813477 43.62231445 C231.078125 45.12109375 231.078125 45.12109375 232.078125 48.12109375 C219.38239923 49.33988342 219.38239923 49.33988342 214.2421875 46.62109375 C211.74427133 44.55162275 209.41344234 42.37177027 207.078125 40.12109375 C194.7496001 30.04104789 181.45603977 24.56722887 166.078125 21.12109375 C164.93537109 20.83105469 164.93537109 20.83105469 163.76953125 20.53515625 C142.69042414 17.29221669 120.46427555 22.11528647 102.82421875 34.09375 C82.46561042 49.12378944 68.91925306 68.08651454 64.5 93.4375 C62.37307686 112.00869001 64.92374142 129.26393237 73.078125 146.12109375 C73.51898438 147.04277344 73.95984375 147.96445313 74.4140625 148.9140625 C85.15800667 169.95675978 103.9874699 183.81068108 126.078125 191.12109375 C148.69829068 197.85631162 171.80988985 194.94719974 192.58569336 184.27758789 C199.02695937 180.7827631 205.02122869 176.57814172 209.8984375 171.0625 C213.09847573 167.62003464 215.40845992 165.98907725 220.1328125 165.6875 C224.13294178 165.61321062 228.09037542 165.81620513 232.078125 166.12109375 C230.69861286 169.21179702 229.10568891 171.36002317 226.734375 173.765625 C226.07050781 174.43916016 225.40664063 175.11269531 224.72265625 175.80664062 C205.03920459 195.32875252 182.04156639 207.52899224 153.84814453 207.43676758 C151.84532226 207.43362077 149.84251841 207.45790333 147.83984375 207.48242188 C124.70985863 207.49381596 103.56154115 199.18465991 86.078125 184.12109375 C85.41554687 183.60289062 84.75296875 183.0846875 84.0703125 182.55078125 C75.53677891 175.67558617 69.02362915 166.24772045 63.078125 157.12109375 C55.57162506 160.73456751 48.37532857 164.76256514 41.203125 168.99609375 C39.18489583 170.18098958 37.16666667 171.36588542 35.1484375 172.55078125 C34.16012939 173.13996338 33.17182129 173.72914551 32.15356445 174.33618164 C30.02267774 175.57289775 27.86205446 176.7592315 25.68041992 177.90405273 C24.04617065 178.77912476 24.04617065 178.77912476 22.37890625 179.671875 C21.38544189 180.18403564 20.39197754 180.69619629 19.3684082 181.22387695 C16.78180342 182.98723592 16.78180342 182.98723592 16.27563477 186.28027344 C16.18214989 188.46372846 16.15459782 190.65062614 16.1796875 192.8359375 C15.98923306 198.99640614 13.25171976 203.71493329 9.1796875 208.22265625 C2.30600358 214.62229301 -4.19399988 215.65200366 -13.44140625 215.49609375 C-20.18565376 214.76944082 -24.72342671 211.67206559 -29.296875 206.80859375 C-34.01504844 200.71428639 -35.5835581 194.61006029 -35.328125 186.92578125 C-34.18167105 179.01083954 -29.98049338 173.52509626 -23.984375 168.49609375 C-17.45164568 164.14094087 -10.5306151 164.41251928 -2.921875 165.12109375 C1.05203455 166.30766956 4.58011459 167.97975249 7.8828125 170.49609375 C10.28304818 171.43619044 10.28304818 171.43619044 13.203125 169.69140625 C14.50429384 168.891558 15.79518505 168.07486553 17.078125 167.24609375 C18.57605743 166.31567345 20.07623756 165.38886628 21.578125 164.46484375 C22.42761719 163.94019531 23.27710938 163.41554687 24.15234375 162.875 C27.52658117 160.85225955 30.95012666 158.934355 34.390625 157.02734375 C35.67064702 156.31377224 36.95059468 155.60006732 38.23046875 154.88623047 C40.15170768 153.81518727 42.07460774 152.74801765 44.00439453 151.69244385 C45.82748983 150.69347381 47.64085083 149.67859183 49.453125 148.66015625 C50.51273438 148.07443848 51.57234375 147.4887207 52.6640625 146.88525391 C55.19077281 145.35680001 55.19077281 145.35680001 55.96020508 143.02539062 C56.10538589 140.6808558 55.61677096 139.18244972 54.765625 136.99609375 C51.96615446 129.1755545 51.078125 122.49014879 51.078125 114.12109375 C19.398125 114.12109375 -12.281875 114.12109375 -44.921875 114.12109375 C-45.581875 116.10109375 -46.241875 118.08109375 -46.921875 120.12109375 C-51.0047172 125.99339324 -55.7448365 130.69307237 -62.921875 132.12109375 C-70.84707977 132.71646012 -78.44957123 133.28732725 -84.921875 128.12109375 C-91.63592359 121.9778752 -94.9236568 115.82899486 -95.421875 106.74609375 C-95.20406359 99.91817961 -92.83589173 94.33328894 -88.2421875 89.26953125 C-81.20379083 82.91933337 -74.9328243 81.55184352 -65.5546875 81.78125 C-57.60702483 82.52474102 -53.53328394 85.97849038 -48.46484375 91.92578125 C-46.921875 94.12109375 -46.921875 94.12109375 -43.921875 100.12109375 C3.103125 100.61609375 3.103125 100.61609375 51.078125 101.12109375 C51.408125 96.17109375 51.738125 91.22109375 52.078125 86.12109375 C54.203125 78.93359375 54.203125 78.93359375 55.3359375 75.828125 C56.14675378 72.8707793 56.28173489 71.89551092 55.078125 69.12109375 C52.70361618 67.33295352 52.70361618 67.33295352 49.671875 65.80078125 C48.54281738 65.1871875 47.41375977 64.57359375 46.25048828 63.94140625 C45.0265577 63.29260924 43.80243288 62.64417851 42.578125 61.99609375 C40.10406034 60.66515347 37.63418193 59.32652565 35.1640625 57.98828125 C34.55271454 57.65882507 33.94136658 57.3293689 33.31149292 56.9899292 C27.46900357 53.8277465 21.7794846 50.42278874 16.19335938 46.82763672 C13.43895536 45.131115 11.63623989 44.09547011 8.35546875 44.24609375 C6.24408142 45.05733005 4.42549189 45.91579492 2.515625 47.12109375 C-3.1187676 50.39928581 -8.47554745 50.91647993 -14.921875 50.12109375 C-23.05042401 47.53638426 -28.79495865 42.57086225 -33.015625 35.21484375 C-35.79399215 28.93779205 -36.15371885 21.92612254 -34.04296875 15.40625 C-27.78937392 1.68136365 -14.689013 -4.41848653 0 0 Z " fill="#241A51" transform="translate(146.921875,75.87890625)"/>
<path d="M0 0 C0 22.11 0 44.22 0 67 C6.08170049 63.3509797 13.50642284 57.8880707 15.6875 50.75 C15.790625 50.1725 15.89375 49.595 16 49 C14.68 48.67 13.36 48.34 12 48 C12 46.35 12 44.7 12 43 C21.57 43 31.14 43 41 43 C41 44.98 41 46.96 41 49 C40.40574219 49.0515625 39.81148438 49.103125 39.19921875 49.15625 C29.18259153 50.52711033 21.65917752 56.65194205 15 64 C16.36266644 68.03805866 18.1409151 70.54368118 21.0625 73.625 C24.43066598 77.2476737 27.60626809 80.94268161 30.6875 84.8125 C32.11784392 86.54759074 33.55446605 88.27754384 35 90 C35.48726563 90.59554687 35.97453125 91.19109375 36.4765625 91.8046875 C38.79101283 94.20034661 40.64954347 94.97887412 43.9362793 95.17700195 C45.55143433 95.14546021 45.55143433 95.14546021 47.19921875 95.11328125 C48.82670044 95.08874878 48.82670044 95.08874878 50.48706055 95.0637207 C51.31633057 95.04269287 52.14560059 95.02166504 53 95 C53.09898615 90.08876411 53.17152247 85.17811062 53.21972656 80.26611328 C53.23982393 78.59576298 53.26710683 76.92548287 53.30175781 75.25537109 C53.35036119 72.8523628 53.37298656 70.45028566 53.390625 68.046875 C53.41127014 67.30193787 53.43191528 66.55700073 53.45318604 65.78948975 C53.45468011 62.32571894 53.31141263 60.40313118 51.16308594 57.62207031 C49.48115774 56.360814 47.7492163 55.1661442 46 54 C46.25878906 52.13378906 46.25878906 52.13378906 47 50 C48.68652344 48.81152344 48.68652344 48.81152344 50.859375 47.859375 C51.64570313 47.51132812 52.43203125 47.16328125 53.2421875 46.8046875 C54.06976563 46.45664062 54.89734375 46.10859375 55.75 45.75 C56.56210937 45.38648438 57.37421875 45.02296875 58.2109375 44.6484375 C65.57099671 41.45987765 65.57099671 41.45987765 70 42 C70.495 45.465 70.495 45.465 71 49 C71.61488281 48.57847656 72.22976563 48.15695312 72.86328125 47.72265625 C73.67152344 47.17480469 74.47976563 46.62695312 75.3125 46.0625 C76.11300781 45.51722656 76.91351563 44.97195313 77.73828125 44.41015625 C81.97135557 41.77088193 85.97283992 41.75331587 90.8125 41.6875 C91.86147461 41.64399414 91.86147461 41.64399414 92.93164062 41.59960938 C98.0824314 41.53697113 100.89409475 42.65557569 105 46 C108.30119887 49.74730682 110.10100071 52.10489117 110.20532227 57.08251953 C110.22526749 57.92324005 110.24521271 58.76396057 110.26576233 59.63015747 C110.29083107 60.99272171 110.29083107 60.99272171 110.31640625 62.3828125 C110.33718735 63.31221649 110.35796844 64.24162048 110.37937927 65.19918823 C110.44487646 68.1743821 110.50376052 71.14966577 110.5625 74.125 C110.60568506 76.13933228 110.64929934 78.15365541 110.69335938 80.16796875 C110.80055803 85.11188663 110.90182501 90.05589503 111 95 C113.31 95.33 115.62 95.66 118 96 C118 97.65 118 99.3 118 101 C107.11 101 96.22 101 85 101 C85.33 99.35 85.66 97.7 86 96 C86.639375 95.896875 87.27875 95.79375 87.9375 95.6875 C88.618125 95.460625 89.29875 95.23375 90 95 C91.20915439 91.37253682 91.20026375 88.00628422 91.23828125 84.2265625 C91.25038887 83.08542496 91.25038887 83.08542496 91.26274109 81.92123413 C91.27656024 80.31242132 91.28729209 78.70357946 91.29516602 77.09472656 C91.31238974 74.64070919 91.35629371 72.18803596 91.40039062 69.734375 C91.41051741 68.16928071 91.41903356 66.604175 91.42578125 65.0390625 C91.45204338 63.94351547 91.45204338 63.94351547 91.47883606 62.82583618 C91.46337828 59.17657637 91.09392385 57.14877401 89.12792969 54.03466797 C87.17080051 51.82166981 87.17080051 51.82166981 84.52734375 51.40625 C83.24537109 51.45265625 83.24537109 51.45265625 81.9375 51.5 C81.08027344 51.5103125 80.22304688 51.520625 79.33984375 51.53125 C76.55412531 52.08932381 75.66256942 52.72108864 74 55 C72.76152219 59.05943115 72.87403342 63.05956685 72.90234375 67.265625 C72.9037587 68.05902283 72.90517365 68.85242065 72.90663147 69.66986084 C72.91221585 72.19661272 72.92476546 74.72327504 72.9375 77.25 C72.94251702 78.96614455 72.94707957 80.68229049 72.95117188 82.3984375 C72.96218016 86.59899269 72.97943404 90.79948117 73 95 C74.98 95.495 74.98 95.495 77 96 C77 97.65 77 99.3 77 101 C56.21 101 35.42 101 14 101 C14 99.68 14 98.36 14 97 C14.66 96.67 15.32 96.34 16 96 C14.44703496 91.41918692 11.9980712 87.87436619 9.1875 84 C8.76146484 83.39671875 8.33542969 82.7934375 7.89648438 82.171875 C5.13578015 78.32944249 2.44211973 75.44211973 -1 72 C-0.505 83.385 -0.505 83.385 0 95 C1.65 95.66 3.3 96.32 5 97 C5 98.32 5 99.64 5 101 C-5.23 101 -15.46 101 -26 101 C-25.67 99.35 -25.34 97.7 -25 96 C-22.525 95.505 -22.525 95.505 -20 95 C-19.90739784 84.88195392 -19.83628484 74.76400834 -19.79275131 64.64562511 C-19.77185934 59.94743592 -19.74351254 55.24953623 -19.69824219 50.55151367 C-19.65484152 46.01925619 -19.63087503 41.48727748 -19.62049103 36.95482826 C-19.61308922 35.22399823 -19.59863542 33.49318378 -19.57707977 31.76247215 C-19.54812174 29.34155453 -19.54404068 26.92179483 -19.54589844 24.50073242 C-19.53151733 23.78216064 -19.51713623 23.06358887 -19.50231934 22.32324219 C-19.52926359 19.08704494 -19.55048958 17.45113456 -21.88775635 15.10542297 C-22.58479675 14.74063339 -23.28183716 14.37584381 -24 14 C-24.7425 13.608125 -25.485 13.21625 -26.25 12.8125 C-26.8275 12.544375 -27.405 12.27625 -28 12 C-27.67 10.35 -27.34 8.7 -27 7 C-26.01 6.74605469 -25.02 6.49210937 -24 6.23046875 C-15.54797264 4.08688679 -15.54797264 4.08688679 -7.3125 1.25 C-4 0 -4 0 0 0 Z " fill="#241951" transform="translate(242,295)"/>
<path d="M0 0 C3.3125 2.125 3.3125 2.125 4.3125 4.125 C4.77521186 10.48728814 4.77521186 10.48728814 3.09375 12.8046875 C0.14795478 14.98819361 -2.53058607 14.82978722 -6.1015625 14.76171875 C-10.77670395 13.61058876 -13.09601293 9.96932519 -15.6875 6.125 C-19.01912028 6.40263502 -20.41042414 6.85099924 -22.82128906 9.23510742 C-25.11478295 12.78666252 -25.22530554 14.97107568 -25.296875 19.17578125 C-25.32749023 20.38145752 -25.35810547 21.58713379 -25.38964844 22.8293457 C-25.40543945 24.35003662 -25.42123047 25.87072754 -25.4375 27.4375 C-25.52 32.284375 -25.6025 37.13125 -25.6875 42.125 C-10.8375 42.125 4.0125 42.125 19.3125 42.125 C19.3125 43.445 19.3125 44.765 19.3125 46.125 C17.9925 46.455 16.6725 46.785 15.3125 47.125 C15.16245069 51.29537561 15.55309898 54.60403669 16.84375 58.56640625 C17.15957031 59.56220703 17.47539062 60.55800781 17.80078125 61.58398438 C18.13464844 62.60814453 18.46851563 63.63230469 18.8125 64.6875 C19.47529769 66.72835389 20.13178967 68.77126893 20.78125 70.81640625 C21.07451172 71.71560791 21.36777344 72.61480957 21.66992188 73.54125977 C22.32444198 76.17301749 22.43167616 78.42499107 22.3125 81.125 C22.9725 81.125 23.6325 81.125 24.3125 81.125 C24.44785156 80.61195313 24.58320313 80.09890625 24.72265625 79.5703125 C26.6527768 72.70509329 29.19639866 66.1433621 31.88696289 59.54736328 C33.54804106 55.40343404 34.78556125 51.5968586 35.3125 47.125 C33.0025 46.795 30.6925 46.465 28.3125 46.125 C28.3125 44.475 28.3125 42.825 28.3125 41.125 C36.5625 41.125 44.8125 41.125 53.3125 41.125 C53.3125 42.775 53.3125 44.425 53.3125 46.125 C51.76949219 46.51365234 51.76949219 46.51365234 50.1953125 46.91015625 C44.44375171 49.40750648 42.67757404 55.17054557 40.1875 60.5625 C39.35617554 62.29294556 39.35617554 62.29294556 38.50805664 64.05834961 C37.0393779 67.12015816 35.60012017 70.19478692 34.17108154 73.27526855 C32.78936489 76.25204433 31.39493273 79.22287806 30.00390625 82.1953125 C27.83435761 86.84986249 25.67538343 91.50916238 23.5234375 96.171875 C22.45324821 98.48964023 21.38293529 100.80734837 20.3125 103.125 C19.77141602 104.29740234 19.23033203 105.46980469 18.67285156 106.67773438 C17.08532684 110.10329579 15.4822336 113.52114951 13.875 116.9375 C13.40312256 117.96302979 12.93124512 118.98855957 12.44506836 120.04516602 C6.23355457 133.16447271 6.23355457 133.16447271 0.3125 136.125 C-4.54943904 136.71791939 -8.39109464 137.11991574 -12.375 134.0625 C-14.08284422 130.24018198 -13.7989336 128.12616096 -12.6875 124.125 C-11.5625 122.1875 -11.5625 122.1875 -9.6875 121.125 C-5.19067326 120.78561685 -1.10692765 121.35206766 3.3125 122.125 C4.63782061 119.61021169 5.94770231 117.08918013 7.25 114.5625 C7.62318359 113.85802734 7.99636719 113.15355469 8.38085938 112.42773438 C8.73857422 111.72841797 9.09628906 111.02910156 9.46484375 110.30859375 C9.79476318 109.67493896 10.12468262 109.04128418 10.46459961 108.38842773 C13.06432493 101.44859088 11.96898997 96.86102011 9.3046875 90.296875 C8.98219025 89.46722229 8.65969299 88.63756958 8.3274231 87.78277588 C7.29574631 85.14068815 6.24172868 82.50815817 5.1875 79.875 C4.50119336 78.12164532 3.81628409 76.367743 3.1328125 74.61328125 C-0.24102364 65.99972453 -3.74700739 57.49663021 -7.6875 49.125 C-13.6275 49.125 -19.5675 49.125 -25.6875 49.125 C-25.56957974 55.23069107 -25.44535627 61.33620819 -25.31518555 67.44165039 C-25.27176666 69.52039057 -25.23009688 71.59916803 -25.19018555 73.67797852 C-25.13265079 76.65913145 -25.06890881 79.64009549 -25.00390625 82.62109375 C-24.98719376 83.55650497 -24.97048126 84.4919162 -24.95326233 85.45567322 C-24.93331711 86.31649002 -24.91337189 87.17730682 -24.89282227 88.06420898 C-24.86950584 89.20671364 -24.86950584 89.20671364 -24.84571838 90.37229919 C-24.87370671 92.15235006 -24.87370671 92.15235006 -23.6875 93.125 C-22.34002916 93.35575082 -20.98372435 93.53653063 -19.625 93.6875 C-18.325625 93.831875 -17.02625 93.97625 -15.6875 94.125 C-15.3575 95.775 -15.0275 97.425 -14.6875 99.125 C-27.5575 99.125 -40.4275 99.125 -53.6875 99.125 C-53.3575 97.475 -53.0275 95.825 -52.6875 94.125 C-50.0475 94.125 -47.4075 94.125 -44.6875 94.125 C-44.3575 79.275 -44.0275 64.425 -43.6875 49.125 C-46.9875 49.125 -50.2875 49.125 -53.6875 49.125 C-53.6875 46.815 -53.6875 44.505 -53.6875 42.125 C-50.3875 42.125 -47.0875 42.125 -43.6875 42.125 C-43.73970703 40.65740234 -43.73970703 40.65740234 -43.79296875 39.16015625 C-44.05626704 26.40899609 -42.05555223 16.90815377 -33.0234375 7.3671875 C-24.20319061 -0.64755739 -11.41001667 -5.56031609 0 0 Z " fill="#241951" transform="translate(457.6875,296.875)"/>
<path d="M0 0 C0.98279938 -0.00990463 1.96559875 -0.01980927 2.97817993 -0.03001404 C4.59362953 -0.02326157 4.59362953 -0.02326157 6.24171448 -0.01637268 C7.37689514 -0.02323593 8.51207581 -0.03009918 9.68165588 -0.03717041 C13.44472156 -0.05551421 17.20737333 -0.05158994 20.97047424 -0.0459137 C23.57977434 -0.05047187 26.18907323 -0.05577635 28.79837036 -0.0617981 C34.27187579 -0.07183371 39.74526311 -0.06852187 45.21876526 -0.05836487 C51.54513887 -0.04688461 57.87108851 -0.06095564 64.19740623 -0.08776134 C70.28378549 -0.11258461 76.36996905 -0.11509731 82.45639229 -0.10864449 C85.04601306 -0.10849081 87.63564181 -0.11457305 90.22523308 -0.12693596 C93.84302908 -0.14177276 97.45988586 -0.13122144 101.07765198 -0.11402893 C102.15259415 -0.1236969 103.22753632 -0.13336487 104.33505249 -0.14332581 C111.56570897 -0.07118104 111.56570897 -0.07118104 114.88969421 2.24446106 C116.65687892 5.08217947 116.72636192 7.02663392 116.72047424 10.3603363 C116.72111877 11.5069574 116.72176331 12.65357849 116.72242737 13.83494568 C116.7024469 15.02797302 116.68246643 16.22100037 116.66188049 17.45018005 C116.66897034 18.64707458 116.67606018 19.84396912 116.68336487 21.07713318 C116.61901235 29.87362691 116.61901235 29.87362691 114.96138 32.03288269 C112.80807784 33.7123812 111.73478635 33.75263866 109.02833557 33.72825623 C108.18769058 33.72802963 107.34704559 33.72780304 106.48092651 33.72756958 C105.57771164 33.71208572 104.67449677 33.69660187 103.74391174 33.6806488 C102.8159227 33.67640396 101.88793365 33.67215912 100.93182373 33.66778564 C97.96654807 33.65098667 95.0019509 33.61333221 92.03688049 33.57518005 C90.02712468 33.56013479 88.01735822 33.54644611 86.00758362 33.53416443 C81.07958763 33.50107914 76.15209912 33.44928838 71.22438049 33.38768005 C71.3087072 42.46288254 71.40356039 51.53789578 71.51190758 60.61284351 C71.56188397 64.8265738 71.60821381 69.04027886 71.64625549 73.25413513 C71.68309146 77.31965607 71.72944664 81.38496658 71.782444 85.45030785 C71.80099697 87.00242616 71.8161016 88.5545896 71.82772446 90.10677528 C71.84457172 92.27851095 71.87360215 94.44976372 71.90553284 96.62132263 C71.91885651 97.85820328 71.93218018 99.09508392 71.94590759 100.3694458 C71.99936849 103.56573229 71.99936849 103.56573229 74.22438049 106.38768005 C74.03688049 109.95018005 74.03688049 109.95018005 73.22438049 113.38768005 C69.73314032 115.7151735 68.33215798 115.89067322 64.22438049 115.38768005 C61.84938049 113.70018005 61.84938049 113.70018005 60.22438049 111.38768005 C59.67281097 107.61862163 60.05886933 106.6359468 62.22438049 103.38768005 C62.42657059 100.89246938 62.51496087 98.50645117 62.51148987 96.01048279 C62.51832291 95.26223236 62.52515594 94.51398193 62.53219604 93.74305725 C62.54578089 92.11924684 62.55483621 90.49539367 62.55990601 88.87153435 C62.56818615 86.30401515 62.5886811 83.73685316 62.61244202 81.16943359 C62.66889126 74.79450483 62.70410531 68.41948953 62.74006653 62.04441833 C62.77126376 56.65571889 62.8104146 51.26719313 62.86032104 45.8786335 C62.88044369 43.34479618 62.88871912 40.81109187 62.8966217 38.27719116 C62.90958905 36.72995005 62.92310861 35.18271343 62.93727112 33.63548279 C62.93628922 32.92737961 62.93530731 32.21927643 62.93429565 31.48971558 C62.99669087 26.61536968 62.99669087 26.61536968 65.22438049 24.38768005 C68.30962988 24.21214586 71.30402251 24.15645208 74.38844299 24.19236755 C75.74925491 24.1966124 75.74925491 24.1966124 77.13755798 24.20094299 C80.04163172 24.21215853 82.94539961 24.23726543 85.84938049 24.26268005 C87.81552188 24.27270809 89.78166809 24.28183424 91.74781799 24.2900238 C96.57345708 24.31210233 101.39886689 24.34664141 106.22438049 24.38768005 C106.22438049 19.76768005 106.22438049 15.14768005 106.22438049 10.38768005 C71.57438049 10.38768005 36.92438049 10.38768005 1.22438049 10.38768005 C1.22438049 15.00768005 1.22438049 19.62768005 1.22438049 24.38768005 C5.42461133 24.31358839 9.62274602 24.23069272 13.82203674 24.12522888 C15.24965964 24.09203212 16.67741212 24.06398374 18.10523987 24.04124451 C20.16113864 24.00759992 22.21585561 23.95528444 24.27125549 23.8993988 C26.1250885 23.86012268 26.1250885 23.86012268 28.01637268 23.8200531 C31.45502089 23.3565945 32.63737211 22.57113504 35.22438049 20.38768005 C38.57757816 19.89091003 40.9949165 19.64670845 43.97438049 21.44236755 C46.16419264 23.22158993 47.95298494 24.84488894 49.22438049 27.38768005 C49.34588477 31.88333843 49.02704797 35.35926235 46.22438049 38.95018005 C42.27731412 40.84148269 38.4792593 41.74282981 34.22438049 40.38768005 C33.16610046 38.90183411 33.16610046 38.90183411 32.08644104 37.38597107 C29.79312222 34.55642398 29.33875952 34.40981096 25.4756012 33.66233826 C24.03390802 33.64180138 22.59154256 33.65209753 21.15016174 33.6884613 C20.00259651 33.6785743 20.00259651 33.6785743 18.83184814 33.66848755 C16.39929587 33.65105173 13.96931051 33.67297382 11.53688049 33.70018005 C9.09425689 33.71146959 6.65238818 33.71417682 4.20977783 33.69973755 C2.69285348 33.69233146 1.17575525 33.70063873 -0.3409729 33.72613525 C-2.4150238 33.72483826 -2.4150238 33.72483826 -5.77561951 33.38768005 C-9.08910263 28.41745537 -8.10318133 22.72564413 -8.08811951 16.88768005 C-8.10423279 15.63857849 -8.12034607 14.38947693 -8.13694763 13.1025238 C-8.13759216 11.90756287 -8.13823669 10.71260193 -8.13890076 9.48143005 C-8.14188171 8.3850824 -8.14486267 7.28873474 -8.14793396 6.15916443 C-7.77561951 3.38768005 -7.77561951 3.38768005 -6.55082607 1.73869228 C-4.23912554 -0.02061604 -2.88958641 0.00821372 0 0 Z " fill="#2A2056" transform="translate(241.77561950683594,131.61231994628906)"/>
<path d="M0 0 C2.47001662 0.4410744 3.86383211 0.88808346 5.82566833 2.5005188 C8.39168141 4.27011469 9.95074727 4.47796725 13.03930664 4.67919922 C14.01215607 4.74347107 14.98500549 4.80774292 15.98733521 4.8739624 C20.78437587 5.074651 25.57012051 5.14275553 30.37109375 5.1328125 C31.41467545 5.13376923 32.45825714 5.13472595 33.53346252 5.13571167 C35.72421327 5.13638733 37.91496608 5.13457629 40.10571289 5.13037109 C43.42533956 5.1250196 46.74483062 5.13033439 50.06445312 5.13671875 C52.20833363 5.13605775 54.35221405 5.13477615 56.49609375 5.1328125 C57.47146591 5.13483673 58.44683807 5.13686096 59.45176697 5.13894653 C73.60028958 5.56076129 73.60028958 5.56076129 86 0 C87.32 0 88.64 0 90 0 C90.67310593 4.0614603 91.33735482 8.12432096 92 12.1875 C92.19078125 13.33798828 92.3815625 14.48847656 92.578125 15.67382812 C92.75859375 16.78564453 92.9390625 17.89746094 93.125 19.04296875 C93.29257813 20.06414795 93.46015625 21.08532715 93.6328125 22.13745117 C93.97414707 24.79845372 94.06884702 27.32142068 94 30 C92.35 30.33 90.7 30.66 89 31 C88.48050781 30.26394531 87.96101563 29.52789062 87.42578125 28.76953125 C86.72839844 27.79371094 86.03101562 26.81789063 85.3125 25.8125 C84.28576172 24.36810547 84.28576172 24.36810547 83.23828125 22.89453125 C82.49964844 21.93933594 81.76101562 20.98414063 81 20 C80.04323364 18.72902466 80.04323364 18.72902466 79.06713867 17.43237305 C74.59922801 13.88912749 70.24848026 13.74608855 64.6875 13.1875 C63.66076172 13.06697266 62.63402344 12.94644531 61.57617188 12.82226562 C59.05231519 12.52879392 56.52794167 12.2554344 54 12 C54.10739009 22.78737929 54.22000064 33.57469009 54.33933926 44.3619442 C54.39458319 49.37050522 54.44800555 54.37907207 54.49731445 59.38769531 C54.5449363 64.21822939 54.59727832 69.04869106 54.65294075 73.87913895 C54.67337419 75.72516713 54.69208562 77.57121519 54.70907402 79.41727829 C54.73309615 81.99619502 54.76315364 84.57497422 54.79467773 87.15380859 C54.80331093 88.30718971 54.80331093 88.30718971 54.81211853 89.48387146 C54.79455978 93.37011115 54.79455978 93.37011115 56 97 C58.35599235 97.46751788 58.35599235 97.46751788 61.0625 97.625 C61.98160156 97.69976562 62.90070313 97.77453125 63.84765625 97.8515625 C64.91306641 97.92503906 64.91306641 97.92503906 66 98 C66 99.65 66 101.3 66 103 C51.15 103 36.3 103 21 103 C21 101.35 21 99.7 21 98 C21.71027344 97.93941406 22.42054687 97.87882812 23.15234375 97.81640625 C24.07144531 97.73261719 24.99054687 97.64882813 25.9375 97.5625 C26.85402344 97.48128906 27.77054688 97.40007812 28.71484375 97.31640625 C30.96159732 97.23955024 30.96159732 97.23955024 32 96 C32.12507482 93.38399547 32.18605405 90.79308066 32.20532227 88.17553711 C32.21522186 87.35609116 32.22512146 86.5366452 32.23532104 85.69236755 C32.26703055 82.97072283 32.29173062 80.24906061 32.31640625 77.52734375 C32.33696763 75.64546747 32.35796388 73.76359589 32.37937927 71.88172913 C32.43468426 66.91856689 32.48405623 61.9553624 32.53222656 56.99212646 C32.58238022 51.93156149 32.63809824 46.8710582 32.69335938 41.81054688 C32.80104395 31.87375055 32.90246589 21.93690077 33 12 C29.7688826 12.25013654 26.54082664 12.52876472 23.3125 12.8125 C22.40048828 12.88275391 21.48847656 12.95300781 20.54882812 13.02539062 C14.83703208 13.54464481 10.55597415 14.20291999 6.5144043 18.62573242 C6.12164307 19.19654541 5.72888184 19.7673584 5.32421875 20.35546875 C4.88916016 20.97744141 4.45410156 21.59941406 4.00585938 22.24023438 C3.57080078 22.88283203 3.13574219 23.52542969 2.6875 24.1875 C2.23310547 24.84169922 1.77871094 25.49589844 1.31054688 26.16992188 C0.19828613 27.77391895 -0.90207478 29.38615652 -2 31 C-3.65 30.67 -5.3 30.34 -7 30 C-6.57678348 24.07496869 -5.49836387 18.49870544 -4.0625 12.75 C-3.89266602 12.06486328 -3.72283203 11.37972656 -3.54785156 10.67382812 C-2.60523126 6.99312027 -1.50759458 3.48842513 0 0 Z " fill="#241A51" transform="translate(8,293)"/>
<path d="M0 0 C2.02094852 1.20636274 3.608206 2.44338351 5.28515625 4.08984375 C6.21328125 4.99734375 7.14140625 5.90484375 8.09765625 6.83984375 C10.69217277 10.69455401 12.50068724 14.48709192 13.28515625 19.08984375 C12.79015625 21.56484375 12.79015625 21.56484375 12.28515625 24.08984375 C0.73515625 24.08984375 -10.81484375 24.08984375 -22.71484375 24.08984375 C-21.4317222 35.82605564 -21.4317222 35.82605564 -15.71484375 45.08984375 C-11.00923354 48.51210572 -6.34312136 48.81544052 -0.71484375 48.08984375 C3.00993567 47.08196226 5.74863324 45.64169598 8.47265625 42.83984375 C9.07078125 42.26234375 9.66890625 41.68484375 10.28515625 41.08984375 C12.53515625 41.33984375 12.53515625 41.33984375 14.28515625 42.08984375 C13.47926324 47.95552074 10.56915081 51.17445293 6.28515625 55.08984375 C-2.08674697 60.4466374 -11.01290354 61.14345903 -20.71484375 60.08984375 C-28.6664429 57.98922799 -33.58797099 53.03674623 -37.71484375 46.08984375 C-41.90256398 38.22291217 -42.30235886 27.82932147 -39.953125 19.3359375 C-39.01036049 17.13366942 -37.95772153 15.13541343 -36.71484375 13.08984375 C-36.13734375 12.03796875 -35.55984375 10.98609375 -34.96484375 9.90234375 C-26.55649862 -0.60808766 -12.81044773 -4.29472564 0 0 Z " fill="#241951" transform="translate(134.71484375,337.91015625)"/>
<path d="M0 0 C3.43406596 1.91003281 5.83330377 3.76534199 7.6875 7.3125 C8.16986269 10.22350277 8.03219951 12.30869002 7.6875 15.3125 C3.98416973 17.78138685 0.98332843 17.97663003 -3.3125 17.3125 C-8.1932887 14.60095072 -9.34861652 11.26896783 -11.3125 6.3125 C-14.15333641 4.89208179 -16.16727278 4.99797728 -19.3125 5.3125 C-22.23747227 7.58747843 -23.95336596 9.89123154 -25.3125 13.3125 C-26.18808963 23.76807024 -25.14666375 32.43384963 -20.1171875 41.6484375 C-19.3125 43.3125 -19.3125 43.3125 -19.3125 45.3125 C-18.52875 45.621875 -17.745 45.93125 -16.9375 46.25 C-14.3125 47.3125 -14.3125 47.3125 -12.3125 48.3125 C-5.70117494 48.99144079 -0.67698304 48.70025769 4.93359375 44.9921875 C6.6875 44.3125 6.6875 44.3125 8.91015625 45.1953125 C9.49667969 45.56398438 10.08320313 45.93265625 10.6875 46.3125 C8.12584498 52.27253153 2.63342073 55.77232145 -3.25 58.1875 C-11.15716713 60.48801727 -22.54118655 61.14927259 -30.0625 57.625 C-36.71543525 52.89118069 -41.73658928 47.16132198 -44.3125 39.3125 C-45.52095615 27.6986004 -44.21375253 17.42357059 -36.9375 7.875 C-27.08547688 -1.74245114 -13.17485374 -5.43270263 0 0 Z " fill="#251A51" transform="translate(200.3125,338.6875)"/>
<path d="M0 0 C0.495 26.235 0.495 26.235 1 53 C3.31 53.33 5.62 53.66 8 54 C8.495 56.475 8.495 56.475 9 59 C-3.21 59 -15.42 59 -28 59 C-28 57.35 -28 55.7 -28 54 C-25.03 54 -22.06 54 -19 54 C-18.96989346 48.67876426 -18.98540582 43.36032029 -19.04272461 38.03930664 C-19.05584294 36.23043482 -19.05661808 34.42142881 -19.04467773 32.61254883 C-19.02964325 30.00728778 -19.05937366 27.40573836 -19.09765625 24.80078125 C-19.08340103 23.99538406 -19.06914581 23.18998688 -19.05445862 22.36018372 C-19.11400874 20.0370522 -19.23415872 18.19707642 -20 16 C-21.73275705 14.37683294 -23.40283847 13.28091182 -25.50047302 12.17497253 C-25.99531693 11.7872316 -26.49016083 11.39949066 -27 11 C-27 9.68 -27 8.36 -27 7 C-23.63006885 5.81832417 -20.25333989 4.65739422 -16.875 3.5 C-15.92367188 3.16613281 -14.97234375 2.83226562 -13.9921875 2.48828125 C-13.0640625 2.17246094 -12.1359375 1.85664063 -11.1796875 1.53125 C-10.33132324 1.23798828 -9.48295898 0.94472656 -8.60888672 0.64257812 C-6 0 -6 0 0 0 Z " fill="#271C53" transform="translate(392,337)"/>
<path d="M0 0 C3.85110618 0.55793411 6.058706 1.02095544 9.1484375 3.5078125 C11.00488165 7.30141576 11.44051346 10.29810564 10.5859375 14.4453125 C8.79229839 17.2553471 7.56712815 18.95471718 4.5859375 20.4453125 C-1.16066114 20.90874787 -1.16066114 20.90874787 -3.4140625 20.4453125 C-3.97754395 19.79199951 -4.54102539 19.13868652 -5.12158203 18.46557617 C-8.15522676 15.79215656 -10.17255267 15.85497289 -14.1640625 15.6953125 C-15.91976563 15.61023438 -15.91976563 15.61023438 -17.7109375 15.5234375 C-18.60296875 15.49765625 -19.495 15.471875 -20.4140625 15.4453125 C-20.39487259 16.3657283 -20.37568268 17.2861441 -20.35591125 18.23445129 C-20.17791545 26.90109195 -20.01448207 35.56785778 -19.86747456 44.23508167 C-19.79137749 48.69118379 -19.7096177 53.14703301 -19.61499023 57.6027832 C-19.52390632 61.90143095 -19.44760108 66.20010858 -19.38161278 70.49921227 C-19.35380376 72.14078266 -19.32063615 73.78227117 -19.28206825 75.42362404 C-19.22902444 77.71968677 -19.19490471 80.01530009 -19.1652832 82.31176758 C-19.14085648 83.61970779 -19.11642975 84.92764801 -19.09126282 86.27522278 C-19.4140625 89.4453125 -19.4140625 89.4453125 -20.74601746 91.36381531 C-23.40599888 93.08844646 -25.32956507 92.88595499 -28.4140625 92.4453125 C-30.7890625 90.8203125 -30.7890625 90.8203125 -32.4140625 88.4453125 C-32.7890625 85.3203125 -32.7890625 85.3203125 -32.4140625 82.4453125 C-31.4240625 81.4553125 -31.4240625 81.4553125 -30.4140625 80.4453125 C-30.08769051 77.2944784 -30.08769051 77.2944784 -30.11108398 73.53295898 C-30.10264465 72.82226257 -30.09420532 72.11156616 -30.08551025 71.3793335 C-30.05967316 69.02501784 -30.04757973 66.67082758 -30.03515625 64.31640625 C-30.0189897 62.68497209 -30.00181061 61.05354767 -29.98365784 59.4221344 C-29.93791021 55.12355032 -29.90313402 50.82495345 -29.87145996 46.52624512 C-29.81963576 39.64125632 -29.75460762 32.75641037 -29.68324471 25.8715992 C-29.66033465 23.46018365 -29.64411377 21.04878645 -29.62852478 18.63731384 C-29.61512336 17.16763099 -29.60150901 15.69795006 -29.58764648 14.22827148 C-29.57813461 12.93968735 -29.56862274 11.65110321 -29.55882263 10.32347107 C-29.4140625 7.4453125 -29.4140625 7.4453125 -28.4140625 6.4453125 C-26.99598541 6.34896915 -25.57366352 6.31333563 -24.15234375 6.3046875 C-23.28029297 6.28535156 -22.40824219 6.26601562 -21.50976562 6.24609375 C-19.67404316 6.21259987 -17.83797924 6.19403855 -16.00195312 6.19140625 C-8.51464693 5.98266257 -6.31913509 1.1656657 0 0 Z " fill="#F05D2D" transform="translate(350.4140625,167.5546875)"/>
<path d="M0 0 C3.88446678 2.58964452 6.69907021 5.64814041 8.8125 9.875 C9.21649154 15.12689007 8.70240343 18.44381474 5.8125 22.875 C1.88988726 26.85120035 -1.357387 28.72499074 -7 29.1875 C-11.40347578 29.11478205 -13.81841573 27.78466369 -17.1875 24.875 C-21.31202838 20.42485096 -21.91898092 16.4435384 -21.7109375 10.5703125 C-20.86905342 6.23523774 -18.60833864 3.56616435 -15.1875 0.875 C-10.20484604 -2.08283044 -5.31730259 -1.87669503 0 0 Z " fill="#F5F4F7" transform="translate(144.1875,252.125)"/>
<path d="M0 0 C5.67507225 2.00296668 9.30675089 5.61350179 12 11 C12.58649535 16.86495346 11.59400261 21.34596853 8 26 C4.35771167 28.87676313 0.49108405 30.21702167 -4.125 30.5 C-9.39249908 29.8203227 -12.33606069 27.89344818 -15.8125 23.9375 C-18.50896422 19.53800575 -18.60840848 15.00437398 -18 10 C-14.23811258 2.33153718 -8.40791204 -1.36481137 0 0 Z " fill="#F4F4F6" transform="translate(81,168)"/>
<path d="M0 0 C5.67507225 2.00296668 9.30675089 5.61350179 12 11 C12.40399154 16.25189007 11.88990343 19.56881474 9 24 C5.24275703 27.71716572 2.09576301 30.13976276 -3.25 30.3125 C-7.91781271 30.24506771 -10.43795205 29.14785633 -14 26 C-17.93626932 21.64938655 -18.63883919 18.08222994 -18.3828125 12.3984375 C-17.58724664 7.41397382 -14.94707941 4.81793221 -11.25 1.625 C-7.24168396 -0.37915802 -4.39008284 -0.71261866 0 0 Z " fill="#F4F4F6" transform="translate(141,85)"/>
<path d="M0 0 C2.5625 1.5625 2.5625 1.5625 4 4 C4.60618886 8.77373727 4.71591834 10.83971856 2.1875 14.9375 C-1.17460966 18.10748911 -4.43591607 18.42000155 -8.9921875 18.3359375 C-11 18 -11 18 -14 16 C-16.22265047 12.6660243 -16.73748232 10.85947334 -16.5 6.93359375 C-15.65163253 3.65279768 -13.5881706 2.03356261 -11 0 C-7.49824928 -1.75087536 -3.72415207 -0.8334692 0 0 Z " fill="#251B52" transform="translate(387,308)"/>
<path d="M0 0 C6.18615752 0.34367542 6.18615752 0.34367542 8.9375 2.5625 C10.95004914 7.1795245 10.60116434 11.33795742 8.9375 15.9375 C6.19912082 18.8525488 3.90103825 18.8555171 0 19 C-0.33 18.67 -0.66 18.34 -1 18 C-1.33 20.31 -1.66 22.62 -2 25 C-3.32 25 -4.64 25 -6 25 C-6 17.08 -6 9.16 -6 1 C-4.35 1 -2.7 1 -1 1 C-0.67 0.67 -0.34 0.34 0 0 Z " fill="#F16A3D" transform="translate(125,414)"/>
<path d="M0 0 C2.6875 0.3125 2.6875 0.3125 5 1.6875 C7.6128825 5.75198388 7.42166872 9.61987521 6.6875 14.3125 C5.125 17.5 5.125 17.5 2.6875 19.3125 C-1.0625 19.125 -1.0625 19.125 -4.3125 18.3125 C-4.3125 20.6225 -4.3125 22.9325 -4.3125 25.3125 C-5.6325 25.3125 -6.9525 25.3125 -8.3125 25.3125 C-8.3125 17.3925 -8.3125 9.4725 -8.3125 1.3125 C-6.6625 1.3125 -5.0125 1.3125 -3.3125 1.3125 C-2.3125 0.3125 -2.3125 0.3125 0 0 Z " fill="#F16739" transform="translate(147.3125,413.6875)"/>
<path d="M0 0 C1.32 0 2.64 0 4 0 C4 8.25 4 16.5 4 25 C-1 25 -1 25 -2.39379883 23.62304688 C-2.74466553 22.99462891 -3.09553223 22.36621094 -3.45703125 21.71875 C-3.84697266 21.04199219 -4.23691406 20.36523438 -4.63867188 19.66796875 C-5.02603516 18.95253906 -5.41339844 18.23710937 -5.8125 17.5 C-6.21919922 16.78457031 -6.62589844 16.06914062 -7.04492188 15.33203125 C-8.04674806 13.56410269 -9.0256102 11.78319702 -10 10 C-10.33 14.62 -10.66 19.24 -11 24 C-12.32 24 -13.64 24 -15 24 C-15 16.41 -15 8.82 -15 1 C-10 1 -10 1 -8.60620117 2.37695312 C-8.25533447 3.00537109 -7.90446777 3.63378906 -7.54296875 4.28125 C-7.15302734 4.95800781 -6.76308594 5.63476562 -6.36132812 6.33203125 C-5.97396484 7.04746094 -5.58660156 7.76289063 -5.1875 8.5 C-4.78080078 9.21542969 -4.37410156 9.93085938 -3.95507812 10.66796875 C-2.95325194 12.43589731 -1.9743898 14.21680298 -1 16 C-0.67 10.72 -0.34 5.44 0 0 Z " fill="#F16132" transform="translate(35,408)"/>
<path d="M0 0 C3.7742893 1.16659851 5.30801297 1.74050024 7.4375 5.0625 C8.02738315 8.69886828 7.79466216 11.9314865 6.6875 15.4375 C5.04176389 17.57695694 4.04514742 18.28725347 1.4375 19.0625 C-2.17154929 18.93586669 -4.60503257 18.80376511 -7.5 16.5625 C-9.13932935 12.70525448 -9.32995652 9.17752876 -8.5625 5.0625 C-5.94061147 1.08994162 -4.79463931 0.08411648 0 0 Z " fill="#F16638" transform="translate(375.5625,413.9375)"/>
<path d="M0 0 C3.7742893 1.16659851 5.30801297 1.74050024 7.4375 5.0625 C8.02738315 8.69886828 7.79466216 11.9314865 6.6875 15.4375 C5.04176389 17.57695694 4.04514742 18.28725347 1.4375 19.0625 C-2.17154929 18.93586669 -4.60503257 18.80376511 -7.5 16.5625 C-9.13932935 12.70525448 -9.32995652 9.17752876 -8.5625 5.0625 C-5.94061147 1.08994162 -4.79463931 0.08411648 0 0 Z " fill="#F16638" transform="translate(178.5625,413.9375)"/>
<path d="M0 0 C3.15850062 2.75356464 3.90662809 4.34639662 4.5 8.5 C3.90662809 12.65360338 3.15850062 14.24643536 0 17 C-3.4375 18.125 -3.4375 18.125 -7 18 C-9.9375 16.1875 -9.9375 16.1875 -12 13 C-12.68942741 9.52483746 -12.71890124 6.47176697 -12 3 C-8.48943757 -1.57436922 -5.34478696 -1.65202506 0 0 Z " fill="#F16435" transform="translate(315,415)"/>
<path d="M0 0 C2.98356441 1.81608269 4.61660986 2.93830422 5.8125 6.25 C5.874375 6.8275 5.93625 7.405 6 8 C4.35 8 2.7 8 1 8 C0.67 7.01 0.34 6.02 0 5 C-2.31 5 -4.62 5 -7 5 C-8.23184766 7.46369532 -8.16732342 9.1894501 -8.1875 11.9375 C-8.20167969 12.81277344 -8.21585937 13.68804687 -8.23046875 14.58984375 C-8.16663349 17.26244335 -8.16663349 17.26244335 -6 20 C-2.41642759 20.25015873 -2.41642759 20.25015873 1 20 C1.33 18.35 1.66 16.7 2 15 C0.02 15 -1.96 15 -4 15 C-4 14.01 -4 13.02 -4 12 C-0.7 12 2.6 12 6 12 C6 15.3 6 18.6 6 22 C1.47405537 24.64933344 -1.75303174 25.66779596 -7 25 C-10.38939556 22.86320715 -11.72582557 21.8225233 -13 18 C-13.90852675 7.54449547 -13.90852675 7.54449547 -11.125 2.8125 C-7.41285163 -0.3537442 -4.85444724 -0.41139383 0 0 Z " fill="#F1683B" transform="translate(345,408)"/>
<path d="M0 0 C1.65 0 3.3 0 5 0 C6.1773496 3.07935966 7.33997891 6.16407516 8.5 9.25 C8.83386719 10.12269531 9.16773437 10.99539063 9.51171875 11.89453125 C9.82753906 12.73886719 10.14335938 13.58320313 10.46875 14.453125 C10.90864258 15.61569824 10.90864258 15.61569824 11.35742188 16.80175781 C12 19 12 19 12 23 C10.0625 22.6875 10.0625 22.6875 8 22 C7.67 21.01 7.34 20.02 7 19 C3.7 18.67 0.4 18.34 -3 18 C-3.33 19.65 -3.66 21.3 -4 23 C-5.32 23 -6.64 23 -8 23 C-7.26905294 17.94514073 -5.31619096 13.40096821 -3.4375 8.6875 C-3.10814453 7.85154297 -2.77878906 7.01558594 -2.43945312 6.15429688 C-1.63001123 4.10136454 -0.81676543 2.05002714 0 0 Z " fill="#F16436" transform="translate(104,409)"/>
<path d="M0 0 C2.4375 1.625 2.4375 1.625 4 4 C4.59363772 8.08125936 4.41259601 10.24082335 2.4375 13.875 C-0.779743 16.67977595 -2.75354391 17.07449923 -7 17 C-9.80189446 15.23358828 -11.51524911 13.96950178 -13 11 C-13.43023798 7.12785818 -13.31669086 5.47503629 -11.125 2.1875 C-7.38445041 -1.66306575 -5.14450674 -1.1530791 0 0 Z " fill="#271C54" transform="translate(142,258)"/>
<path d="M0 0 C2.12890625 0.41015625 2.12890625 0.41015625 4.69140625 1.91015625 C6.72741172 5.45103532 6.92324483 8.42208525 6.12890625 12.41015625 C3.99288691 15.74234643 2.49618735 16.30331084 -1.30859375 17.41015625 C-4.87109375 17.41015625 -4.87109375 17.41015625 -7.74609375 15.59765625 C-10.22865964 13.04207372 -10.79174668 12.12427991 -11.18359375 8.59765625 C-10.47821028 1.40274481 -6.65732196 -0.42773568 0 0 Z " fill="#261C53" transform="translate(79.87109375,174.58984375)"/>
<path d="M0 0 C2.12890625 0.41015625 2.12890625 0.41015625 4.69140625 1.91015625 C6.72741172 5.45103532 6.92324483 8.42208525 6.12890625 12.41015625 C3.99288691 15.74234643 2.49618735 16.30331084 -1.30859375 17.41015625 C-4.87109375 17.41015625 -4.87109375 17.41015625 -7.74609375 15.59765625 C-10.22865964 13.04207372 -10.79174668 12.12427991 -11.18359375 8.59765625 C-10.47821028 1.40274481 -6.65732196 -0.42773568 0 0 Z " fill="#261C53" transform="translate(139.87109375,91.58984375)"/>
<path d="M0 0 C3.09361457 2.74987962 4.24824345 5.18646111 4.875 9.1875 C4.91625 10.445625 4.9575 11.70375 5 13 C3 15 3 15 -0.6953125 15.1953125 C-2.17200108 15.182009 -3.64862358 15.15814835 -5.125 15.125 C-5.87910156 15.11597656 -6.63320312 15.10695313 -7.41015625 15.09765625 C-9.27357254 15.0740687 -11.13682593 15.03819719 -13 15 C-12.36724665 9.55702985 -11.43727442 6.34714117 -8 2 C-4.75846834 -0.1610211 -3.76307099 -0.64247553 0 0 Z " fill="#F2F2F5" transform="translate(125,342)"/>
<path d="M0 0 C1.32 0 2.64 0 4 0 C4.66 2.64 5.32 5.28 6 8 C6.99 5.36 7.98 2.72 9 0 C10.65 0.33 12.3 0.66 14 1 C14.66 3.31 15.32 5.62 16 8 C16.33 8 16.66 8 17 8 C17.66 5.36 18.32 2.72 19 0 C20.32 0 21.64 0 23 0 C21.76123355 5.69305433 20.43723997 11.35370013 19 17 C17.68 17 16.36 17 15 17 C13.68 14.36 12.36 11.72 11 9 C10.01 11.64 9.02 14.28 8 17 C6.68 17 5.36 17 4 17 C3.32844651 14.73050898 2.6626037 12.4596039 2 10.1875 C1.443125 8.29064453 1.443125 8.29064453 0.875 6.35546875 C0 3 0 3 0 0 Z " fill="#F16435" transform="translate(386,415)"/>
<path d="M0 0 C2.17578125 1.5703125 2.17578125 1.5703125 4 4 C4.390625 7.453125 4.390625 7.453125 4.25 11.25 C4.21390625 12.51328125 4.1778125 13.7765625 4.140625 15.078125 C4.07101563 16.52445312 4.07101563 16.52445312 4 18 C3.195625 17.979375 2.39125 17.95875 1.5625 17.9375 C-0.93354885 17.70366379 -0.93354885 17.70366379 -2 19 C-5.4375 18.75 -5.4375 18.75 -9 18 C-11 15 -11 15 -10.75 12.4375 C-10 10 -10 10 -8 8 C-5.31160615 7.73008094 -2.70858064 7.91262643 0 8 C-0.33 7.01 -0.66 6.02 -1 5 C-2.65 4.67 -4.3 4.34 -6 4 C-6 4.66 -6 5.32 -6 6 C-7.32 6 -8.64 6 -10 6 C-9.6875 4.125 -9.6875 4.125 -9 2 C-5.50875983 -0.32749345 -4.10777749 -0.50299316 0 0 Z " fill="#F16436" transform="translate(200,414)"/>
<path d="M0 0 C1.9375 1.6875 1.9375 1.6875 3 4 C3.1875 7.25 3.1875 7.25 3 10 C-0.63 10 -4.26 10 -8 10 C-7.67 10.99 -7.34 11.98 -7 13 C-4.03 13 -1.06 13 2 13 C2 13.99 2 14.98 2 16 C-0.70367569 17.83849947 -2.16625394 17.99703118 -5.5 17.9375 C-9 17 -9 17 -11.4375 14.875 C-13.42214753 11.22324854 -13.58639648 9.10477533 -13 5 C-9.16674349 -0.87765998 -6.80962307 -1.55307193 0 0 Z " fill="#F1693C" transform="translate(56,415)"/>
<path d="M0 0 C2.475 0.495 2.475 0.495 5 1 C5.66 3.64 6.32 6.28 7 9 C7.99 6.03 8.98 3.06 10 0 C11.32 0 12.64 0 14 0 C15.42258812 3.82320557 16.24042276 6.91281305 16 11 C16.66 11 17.32 11 18 11 C18.09087891 10.06027344 18.09087891 10.06027344 18.18359375 9.1015625 C18.26738281 8.28429687 18.35117188 7.46703125 18.4375 6.625 C18.51871094 5.81289063 18.59992188 5.00078125 18.68359375 4.1640625 C19 2 19 2 20 0 C20.99 0 21.98 0 23 0 C22.58411954 6.19518473 21.39748106 11.26689311 19 17 C17.68 17 16.36 17 15 17 C13.80712589 13.12315913 13 10.08378077 13 6 C12.34 6 11.68 6 11 6 C10.34 9.3 9.68 12.6 9 16 C7.35 16.33 5.7 16.66 4 17 C2.68 11.39 1.36 5.78 0 0 Z " fill="#F16132" transform="translate(61,415)"/>
<path d="M0 0 C4.93731454 1.46290801 4.93731454 1.46290801 6.375 4 C6.5625 7.6875 6.5625 7.6875 6.375 11 C2.745 11 -0.885 11 -4.625 11 C-4.295 12.32 -3.965 13.64 -3.625 15 C0.83 14.505 0.83 14.505 5.375 14 C5.375 14.99 5.375 15.98 5.375 17 C1.85675489 19.34549674 0.51724306 19.57991403 -3.625 19 C-6.6390178 16.96881409 -8.2976873 15.45970907 -9.109375 11.83984375 C-9.36491328 7.58797078 -8.94775018 5.48901542 -6.5625 1.875 C-3.625 0 -3.625 0 0 0 Z " fill="#F16739" transform="translate(254.625,414)"/>
<path d="M0 0 C1.32 0 2.64 0 4 0 C4 2.97 4 5.94 4 9 C4.99 8.34 5.98 7.68 7 7 C9.69663035 6.66292121 11.30172321 6.57207741 13.64453125 8.0078125 C15.78832622 11.15863509 15.3124148 14.52012964 15.1875 18.1875 C15.17396484 18.93708984 15.16042969 19.68667969 15.14648438 20.45898438 C15.11118539 22.30629767 15.05737917 24.15324066 15 26 C13.68 26 12.36 26 11 26 C10.67 21.38 10.34 16.76 10 12 C8.35 12 6.7 12 5 12 C4.67 16.62 4.34 21.24 4 26 C2.68 26 1.36 26 0 26 C0 17.42 0 8.84 0 0 Z " fill="#F1673A" transform="translate(424,407)"/>
<path d="M0 0 C1.32 0 2.64 0 4 0 C4.33 2.64 4.66 5.28 5 8 C6.36125 7.62875 6.36125 7.62875 7.75 7.25 C11 7 11 7 13.1875 8.5 C15.63031622 11.86940168 15.44602649 14.7616148 15.25 18.75 C15.23195312 19.44738281 15.21390625 20.14476562 15.1953125 20.86328125 C15.14838554 22.57611539 15.07664605 24.28823824 15 26 C13.68 26 12.36 26 11 26 C10.67 21.38 10.34 16.76 10 12 C8.35 12 6.7 12 5 12 C4.67 16.29 4.34 20.58 4 25 C2.68 25 1.36 25 0 25 C0 16.75 0 8.5 0 0 Z " fill="#F26D41" transform="translate(227,407)"/>
<path d="M0 0 C2 2 2 2 2 5 C-0.66666667 4.33333333 -3.33333333 3.66666667 -6 3 C-6 3.99 -6 4.98 -6 6 C-5.43410156 6.15855469 -4.86820312 6.31710937 -4.28515625 6.48046875 C-2.07243284 7.18434035 -0.05158129 7.90955868 2 9 C3.1875 11.5 3.1875 11.5 3 14 C1.48656345 16.0179154 0.25060133 16.87469934 -2 18 C-5.74401272 18.4069579 -7.36787347 18.49904726 -10.375 16.125 C-12 14 -12 14 -12 12 C-11.278125 12.144375 -10.55625 12.28875 -9.8125 12.4375 C-8.4203125 12.7159375 -8.4203125 12.7159375 -7 13 C-5.33333333 13.33333333 -3.66666667 13.66666667 -2 14 C-1.67 13.01 -1.34 12.02 -1 11 C-3.01822917 10.54427083 -5.03645833 10.08854167 -7.0546875 9.6328125 C-9 9 -9 9 -11 7 C-11.375 4.5625 -11.375 4.5625 -11 2 C-7.75218562 -1.89737726 -4.62190328 -1.11268042 0 0 Z " fill="#F16536" transform="translate(276,415)"/>
<path d="M0 0 C1.65 0 3.3 0 5 0 C5 1.32 5 2.64 5 4 C5.99 4 6.98 4 8 4 C8 5.32 8 6.64 8 8 C7.01 8 6.02 8 5 8 C5 11.63 5 15.26 5 19 C5.99 19 6.98 19 8 19 C7.67 20.32 7.34 21.64 7 23 C2.25 22.25 2.25 22.25 0 20 C-0.1953125 17.1796875 -0.1953125 17.1796875 -0.125 13.875 C-0.10695313 12.77929688 -0.08890625 11.68359375 -0.0703125 10.5546875 C-0.04710937 9.71164062 -0.02390625 8.86859375 0 8 C-0.99 8 -1.98 8 -3 8 C-2.67 6.68 -2.34 5.36 -2 4 C-1.34 4 -0.68 4 0 4 C0 2.68 0 1.36 0 0 Z " fill="#F37951" transform="translate(413,410)"/>
<path d="M0 0 C3.5660474 0.68286014 4.79013505 1.67181642 6.9375 4.5625 C6.9375 5.5525 6.9375 6.5425 6.9375 7.5625 C3.52728257 6.77552675 0.24864834 5.69130057 -3.0625 4.5625 C-3.0625 8.1925 -3.0625 11.8225 -3.0625 15.5625 C-1.0825 15.5625 0.8975 15.5625 2.9375 15.5625 C2.9375 14.9025 2.9375 14.2425 2.9375 13.5625 C4.2575 13.5625 5.5775 13.5625 6.9375 13.5625 C6.625 15.4375 6.625 15.4375 5.9375 17.5625 C2.44625983 19.88999345 1.04527749 20.06549316 -3.0625 19.5625 C-5.36525556 17.6954009 -6.74073871 16.20602259 -8.0625 13.5625 C-8.75343988 6.53794454 -8.75343988 6.53794454 -5.9375 2.5625 C-3.0625 0.5625 -3.0625 0.5625 0 0 Z " fill="#F1673A" transform="translate(216.0625,413.4375)"/>
<path d="M0 0 C1.32 0 2.64 0 4 0 C4 1.65 4 3.3 4 5 C4.99 5 5.98 5 7 5 C7 5.99 7 6.98 7 8 C6.01 8 5.02 8 4 8 C4 11.63 4 15.26 4 19 C4.99 19 5.98 19 7 19 C7 20.32 7 21.64 7 23 C4.625 23.125 4.625 23.125 2 23 C0 21 0 21 -0.1953125 17.9609375 C-0.16050781 16.18589844 -0.16050781 16.18589844 -0.125 14.375 C-0.10695313 13.18648438 -0.08890625 11.99796875 -0.0703125 10.7734375 C-0.04710937 9.85820312 -0.02390625 8.94296875 0 8 C-0.99 8 -1.98 8 -3 8 C-3 7.01 -3 6.02 -3 5 C-2.01 5 -1.02 5 0 5 C0 3.35 0 1.7 0 0 Z " fill="#F16537" transform="translate(293,410)"/>
<path d="M0 0 C0.99 0 1.98 0 3 0 C3 0.66 3 1.32 3 2 C3.66 2 4.32 2 5 2 C4.98839844 2.74765625 4.97679687 3.4953125 4.96484375 4.265625 C4.95582031 5.25046875 4.94679687 6.2353125 4.9375 7.25 C4.92589844 8.22453125 4.91429687 9.1990625 4.90234375 10.203125 C4.98804423 12.65758678 5.29293934 14.66168914 6 17 C5.34 17 4.68 17 4 17 C4 19.31 4 21.62 4 24 C2.68 24 1.36 24 0 24 C0 16.08 0 8.16 0 0 Z " fill="#F05E2E" transform="translate(139,415)"/>
<path d="M0 0 C2.475 0.495 2.475 0.495 5 1 C7.72502965 0.62277985 7.72502965 0.62277985 10 0 C10 1.32 10 2.64 10 4 C8.35 4.66 6.7 5.32 5 6 C4.67 10.29 4.34 14.58 4 19 C2.68 19 1.36 19 0 19 C0 12.73 0 6.46 0 0 Z " fill="#F26F44" transform="translate(158,414)"/>
<path d="M0 0 C0.99 0 1.98 0 3 0 C4.26439145 2.52878289 4.29047383 4.62012127 4.5 7.4375 C4.73306642 10.56308718 5.00474943 13.01424829 6 16 C5.34 16 4.68 16 4 16 C4 18.64 4 21.28 4 24 C2.68 24 1.36 24 0 24 C0 16.08 0 8.16 0 0 Z " fill="#F16132" transform="translate(119,415)"/>
<path d="M0 0 C1.32 0 2.64 0 4 0 C4 1.32 4 2.64 4 4 C2.35 4.66 0.7 5.32 -1 6 C-1.33 10.29 -1.66 14.58 -2 19 C-3.32 19 -4.64 19 -6 19 C-6 13.06 -6 7.12 -6 1 C-4.35 1 -2.7 1 -1 1 C-0.67 0.67 -0.34 0.34 0 0 Z " fill="#F16B3E" transform="translate(361,414)"/>
<path d="M0 0 C0.99 0 1.98 0 3 0 C3 2.97 3 5.94 3 9 C3.99 9.33 4.98 9.66 6 10 C5.67 10.33 5.34 10.66 5 11 C4.76518307 13.18292774 4.58636677 15.37203174 4.4375 17.5625 C4.31181641 19.35880859 4.31181641 19.35880859 4.18359375 21.19140625 C4.12300781 22.11824219 4.06242188 23.04507812 4 24 C2.68 24 1.36 24 0 24 C0 16.08 0 8.16 0 0 Z " fill="#F05C2B" transform="translate(227,408)"/>
<path d="M0 0 C0.99 0.33 1.98 0.66 3 1 C4.66362417 1.34820041 6.32995171 1.68404492 8 2 C7.125 9.875 7.125 9.875 6 11 C2.5625 10.75 2.5625 10.75 -1 10 C-3 7 -3 7 -2.75 4.4375 C-2 2 -2 2 0 0 Z " fill="#F26E42" transform="translate(192,422)"/>
<path d="M0 0 C2.5625 0.1875 2.5625 0.1875 4.5625 2.1875 C4.8125 5.6875 4.8125 5.6875 4.5625 9.1875 C2.5625 11.1875 2.5625 11.1875 0.0625 11.5 C-1.175 11.3453125 -1.175 11.3453125 -2.4375 11.1875 C-4.4375 8.1875 -4.4375 8.1875 -4.125 4.5625 C-3.2464725 0.24972865 -3.2464725 0.24972865 0 0 Z " fill="#FEF4F1" transform="translate(310.4375,417.8125)"/>
<path d="M0 0 C2.5625 0.1875 2.5625 0.1875 4.5625 2.1875 C4.8125 5.6875 4.8125 5.6875 4.5625 9.1875 C2.5625 11.1875 2.5625 11.1875 0 11.375 C-2.4375 11.1875 -2.4375 11.1875 -3.4375 10.1875 C-3.5354057 8.69011876 -3.56724864 7.18807108 -3.5625 5.6875 C-3.56507813 4.8728125 -3.56765625 4.058125 -3.5703125 3.21875 C-3.37440673 0.2225441 -3.00673063 0.23128697 0 0 Z " fill="#FEF9F7" transform="translate(374.4375,417.8125)"/>
<path d="M0 0 C2.5625 0.1875 2.5625 0.1875 4.5625 2.1875 C4.8125 5.6875 4.8125 5.6875 4.5625 9.1875 C2.5625 11.1875 2.5625 11.1875 0 11.375 C-2.4375 11.1875 -2.4375 11.1875 -3.4375 10.1875 C-3.5354057 8.69011876 -3.56724864 7.18807108 -3.5625 5.6875 C-3.56507813 4.8728125 -3.56765625 4.058125 -3.5703125 3.21875 C-3.37440673 0.2225441 -3.00673063 0.23128697 0 0 Z " fill="#FEF9F7" transform="translate(177.4375,417.8125)"/>
<path d="M0 0 C2.5625 0.1875 2.5625 0.1875 4.5625 2.1875 C4.8125 5.6875 4.8125 5.6875 4.5625 9.1875 C2.5625 11.1875 2.5625 11.1875 0 11.375 C-2.4375 11.1875 -2.4375 11.1875 -3.4375 10.1875 C-3.5354057 8.69011876 -3.56724864 7.18807108 -3.5625 5.6875 C-3.56507812 4.8728125 -3.56765625 4.058125 -3.5703125 3.21875 C-3.37440673 0.2225441 -3.00673063 0.23128697 0 0 Z " fill="#FDF3F0" transform="translate(126.4375,417.8125)"/>
<path d="M0 0 C2.475 0.495 2.475 0.495 5 1 C5.48828125 3.01822917 5.9765625 5.03645833 6.46484375 7.0546875 C6.94846992 9.0585657 6.94846992 9.0585657 8 11 C8.66 11 9.32 11 10 11 C9.67 12.65 9.34 14.3 9 16 C7.35 16.33 5.7 16.66 4 17 C2.68 11.39 1.36 5.78 0 0 Z " fill="#F1693C" transform="translate(61,415)"/>
<path d="M0 0 C2.5 0.125 2.5 0.125 3.5 1.125 C3.5979057 2.62238124 3.62974864 4.12442892 3.625 5.625 C3.62757813 6.4396875 3.63015625 7.254375 3.6328125 8.09375 C3.5 10.125 3.5 10.125 2.5 11.125 C0 11.25 0 11.25 -2.5 11.125 C-3.5 10.125 -3.5 10.125 -3.6328125 8.09375 C-3.63023437 7.2790625 -3.62765625 6.464375 -3.625 5.625 C-3.62757813 4.8103125 -3.63015625 3.995625 -3.6328125 3.15625 C-3.43435342 0.12099356 -3.05615366 0.15280768 0 0 Z " fill="#FEFBFA" transform="translate(146.5,417.875)"/>
<path d="M0 0 C1.32 0 2.64 0 4 0 C4.66 3.63 5.32 7.26 6 11 C6.99 10.67 7.98 10.34 9 10 C8.67 12.31 8.34 14.62 8 17 C6.68 17 5.36 17 4 17 C3.32844651 14.73050898 2.6626037 12.4596039 2 10.1875 C1.443125 8.29064453 1.443125 8.29064453 0.875 6.35546875 C0 3 0 3 0 0 Z " fill="#F05E2E" transform="translate(386,415)"/>
<path d="M0 0 C2.875 -0.125 2.875 -0.125 6 0 C6.66 0.66 7.32 1.32 8 2 C7.67028521 5.29714793 7.3773161 6.6226839 5 9 C0.44444444 8.44444444 0.44444444 8.44444444 -1 7 C-0.71269945 4.66055264 -0.38063221 2.3260857 0 0 Z " fill="#FEF4F1" transform="translate(348,174)"/>
<path d="M0 0 C2.33944736 0.28730055 4.6739143 0.61936779 7 1 C7.125 3.875 7.125 3.875 7 7 C6.34 7.66 5.68 8.32 5 9 C1.70285207 8.67028521 0.3773161 8.3773161 -2 6 C-1.44444444 1.44444444 -1.44444444 1.44444444 0 0 Z " fill="#F1F0F4" transform="translate(278,158)"/>
<path d="M0 0 C2.125 0.375 2.125 0.375 4 1 C4 2.65 4 4.3 4 6 C2.35 6.33 0.7 6.66 -1 7 C-1.625 4.625 -1.625 4.625 -2 2 C-1.34 1.34 -0.68 0.68 0 0 Z " fill="#E5E3EA" transform="translate(308,237)"/>
<path d="M0 0 C2.92879371 0.62759865 5.36095629 1.58622659 8 3 C8.33 2.34 8.66 1.68 9 1 C9 1.99 9 2.98 9 4 C8.01 4 7.02 4 6 4 C6 4.66 6 5.32 6 6 C3.69 5.34 1.38 4.68 -1 4 C-0.67 2.68 -0.34 1.36 0 0 Z " fill="#FCE8E1" transform="translate(270,417)"/>
<path d="M0 0 C1.65 0 3.3 0 5 0 C6.125 3.75 6.125 3.75 5 6 C3.35 5.67 1.7 5.34 0 5 C0 3.35 0 1.7 0 0 Z " fill="#FDF0EC" transform="translate(322,251)"/>
<path d="M0 0 C1.2065625 0.0309375 1.2065625 0.0309375 2.4375 0.0625 C2.1075 1.7125 1.7775 3.3625 1.4375 5.0625 C-0.2125 5.0625 -1.8625 5.0625 -3.5625 5.0625 C-3.5625 0.08689024 -3.5625 0.08689024 0 0 Z " fill="#FDF0EC" transform="translate(197.5625,423.9375)"/>
<path d="M0 0 C2.12508244 3.18762365 2.5020163 5.26512223 3 9 C1.35 9 -0.3 9 -2 9 C-1.125 1.125 -1.125 1.125 0 0 Z " fill="#FDEFEA" transform="translate(106,414)"/>
<path d="M0 0 C0.33 0.66 0.66 1.32 1 2 C1.99 2.33 2.98 2.66 4 3 C3.3125 5.4375 3.3125 5.4375 2 8 C-0.625 8.8125 -0.625 8.8125 -3 9 C-2.30058404 5.85262818 -1.23921302 2.97411124 0 0 Z " fill="#F37850" transform="translate(394,418)"/>
<path d="M0 0 C1.65 0 3.3 0 5 0 C5.33 1.32 5.66 2.64 6 4 C3.69 4 1.38 4 -1 4 C-0.67 2.68 -0.34 1.36 0 0 Z " fill="#FDF0EB" transform="translate(251,418)"/>
<path d="M0 0 C1.65 0 3.3 0 5 0 C5.33 1.32 5.66 2.64 6 4 C3.69 4 1.38 4 -1 4 C-0.67 2.68 -0.34 1.36 0 0 Z " fill="#FDEEE9" transform="translate(49,418)"/>
<path d="M0 0 C1.32 0.33 2.64 0.66 4 1 C4 1.99 4 2.98 4 4 C2.02 4 0.04 4 -2 4 C-1.34 2.68 -0.68 1.36 0 0 Z " fill="#FDEAE3" transform="translate(196,418)"/>
</svg>
